<?xml version="1.0" encoding="UTF-8" standalone="no"?>
<svg
   width="156.32251mm"
   height="53.551666mm"
   viewBox="0 0 156.3225 53.551666"
   version="1.1"
   id="svg901"
   inkscape:version="1.2.1 (9c6d41e410, 2022-07-14)"
   sodipodi:docname="logo-text.svg"
   xmlns:inkscape="http://www.inkscape.org/namespaces/inkscape"
   xmlns:sodipodi="http://sodipodi.sourceforge.net/DTD/sodipodi-0.dtd"
   xmlns:xlink="http://www.w3.org/1999/xlink"
   xmlns="http://www.w3.org/2000/svg"
   xmlns:svg="http://www.w3.org/2000/svg"
   xmlns:rdf="http://www.w3.org/1999/02/22-rdf-syntax-ns#"
   xmlns:cc="http://creativecommons.org/ns#"
   xmlns:dc="http://purl.org/dc/elements/1.1/">
  <defs
     id="defs895">
    <linearGradient
       id="linearGradient8856"
       inkscape:swatch="solid">
      <stop
         style="stop-color:#000000;stop-opacity:1;"
         offset="0"
         id="stop8854" />
    </linearGradient>
    <linearGradient
       inkscape:collect="always"
       xlink:href="#f"
       id="linearGradient4209"
       gradientUnits="userSpaceOnUse"
       gradientTransform="matrix(6.3335998,6.4605267,-9.1515629,4.2878825,34.301626,-287.60073)"
       x1="6"
       y1="21"
       x2="15"
       y2="30" />
    <linearGradient
       id="f"
       gradientUnits="userSpaceOnUse"
       x1="6"
       x2="15"
       y1="21"
       y2="30"
       gradientTransform="matrix(0.51324158,0.5298695,-0.74159448,0.35167692,17.304491,-0.84381972)">
      <stop
         offset="0"
         id="stop4003" />
      <stop
         offset="1"
         stop-opacity="0"
         id="stop4005" />
    </linearGradient>
    <linearGradient
       inkscape:collect="always"
       xlink:href="#f"
       id="linearGradient4101"
       gradientUnits="userSpaceOnUse"
       gradientTransform="matrix(-6.0160621,6.4605267,8.692745,4.2878825,-3.5360337,-288.16249)"
       x1="6"
       y1="21"
       x2="15"
       y2="30" />
    <linearGradient
       id="linearGradient4097"
       gradientUnits="userSpaceOnUse"
       x1="6"
       x2="15"
       y1="21"
       y2="30"
       gradientTransform="matrix(8.1541138,3.9988683,-7.1760271,7.0621603,53.869639,-211.53685)">
      <stop
         offset="0"
         id="stop4003-6" />
      <stop
         offset="1"
         stop-opacity="0"
         id="stop4005-0" />
    </linearGradient>
  </defs>
  <sodipodi:namedview
     id="base"
     pagecolor="#ffffff"
     bordercolor="#666666"
     borderopacity="1.0"
     inkscape:pageopacity="0.0"
     inkscape:pageshadow="2"
     inkscape:zoom="0.49497475"
     inkscape:cx="332.34019"
     inkscape:cy="113.13709"
     inkscape:document-units="mm"
     inkscape:current-layer="g1014"
     showgrid="false"
     units="px"
     fit-margin-top="0"
     fit-margin-left="0"
     fit-margin-right="0"
     fit-margin-bottom="0"
     inkscape:window-width="1366"
     inkscape:window-height="697"
     inkscape:window-x="-8"
     inkscape:window-y="-8"
     inkscape:window-maximized="1"
     inkscape:document-rotation="0"
     inkscape:showpageshadow="0"
     inkscape:pagecheckerboard="0"
     inkscape:deskcolor="#d1d1d1" />
  <metadata
     id="metadata898">
    <rdf:RDF>
      <cc:Work
         rdf:about="">
        <dc:format>image/svg+xml</dc:format>
        <dc:type
           rdf:resource="http://purl.org/dc/dcmitype/StillImage" />
        <dc:title />
      </cc:Work>
    </rdf:RDF>
  </metadata>
  <g
     inkscape:label="Calque 1"
     inkscape:groupmode="layer"
     id="layer1"
     transform="translate(-5.3777482,-236.75438)">
    <g
       id="g1014">
      <g
         id="g1190"
         transform="matrix(0.1203743,0,0,0.1308959,27.207502,276.20404)">
        <path
           d="M 18.203706,-82.228784 -129.88096,-167.57781"
           id="path4022"
           style="stroke-width:12.2663" />
        <ellipse
           style="display:inline;mix-blend-mode:normal;fill:#f2f2f2;fill-opacity:1;stroke:#000000;stroke-width:1.23167;stroke-miterlimit:4;stroke-dasharray:none;stroke-opacity:1;enable-background:new"
           id="path4518-5-7-8"
           cx="13.663533"
           cy="-85.132309"
           rx="154.71469"
           ry="141.19783" />
        <path
           id="path0-0-7"
           d="m 1.4181363,-223.36995 c -0.18647,0.18436 -1.65669996,0.41474 -3.26533,0.49307 -1.60726,0.0922 -3.20329,0.27646 -3.54564,0.41476 -0.34049,0.13827 -1.18281,0.32258 -1.86658,0.36867 -1.6772,0.0922 -1.95517,-0.27645 5.34278,7.40132 6.85461,7.20545 7.3372,7.52894 6.70011,4.49764 -0.20531,-0.97693 -0.37778,-2.65894 -0.38243,-3.74191 -0.002,-1.08292 -0.15857,-2.58522 -0.34514,-3.34095 -0.18646,-0.75578 -0.4291,-2.47467 -0.53731,-3.81565 -0.20532,-2.5207 -0.99019,-3.37787 -2.10212,-2.28569 m 4.93406,-0.0922 c -0.28917,0.0922 -0.22856,0.36867 0.23321,1.01844 0.34514,0.47465 0.62452,0.96772 0.62452,1.10136 0,0.13827 0.25646,0.52074 0.56808,0.87096 0.75652,0.83869 4.7568997,7.06721 5.4073897,8.41835 0.28453,0.58526 0.77563,1.61753 1.09373,2.2903 0.31715,0.67281 0.98367,1.8387 1.47899,2.59448 2.59137,3.94927 6.71684,10.8819 7.99866,13.43718 3.81336,7.60134 4.30168,8.69718 4.30168,9.646 0,0.55301 0.12128,1.07834 0.27053,1.17052 0.14929,0.0922 0.35446,0.58064 0.45708,1.08753 0.13983,0.69124 0.35914,0.92165 0.87124,0.92165 0.37314,0 0.9039,0.18436 1.17443,0.41475 0.27051,0.23051 2.08484,0.78802 4.0335,1.23039 1.94818,0.46085 3.93088,1.07834 4.40522,1.41015 0.47434,0.32256 1.0107,0.60369 1.19213,0.60369 0.569973,0 3.008346,1.45157 5.378915,3.20273 1.255573,0.92624 2.376338,1.6866 2.491551,1.6866 0.177278,0 2.722886,3.48846 3.908489,5.35619 0.209904,0.32259 1.219668,1.89398 2.245297,3.47001 2.215907,3.4101 2.197726,3.50691 -0.517705,2.62672 -8.801967,-2.85251 -14.350497,-2.98617 -19.550577,-0.47464 -2.49529,1.20273 -2.90434,1.89859 -2.7061,4.5944 0.0793,1.09216 0.2705,2.1152 0.42443,2.27649 0.15401,0.18436 0.27985,1.23502 0.27985,2.38708 0,1.15667 0.15856,2.38706 0.34979,2.7419 0.33116,0.60369 0.70335,3.28571 1.09374,7.83956 0.16328,1.89401 0.86378,3.41013 2.30777,4.98569 0.26586,0.27643 1.09653,1.46081 1.84232,2.59907 3.386137,5.1663 4.88456,5.22714 17.120537,0.69581 1.454738,-0.53913 3.485011,-1.25343 4.511573,-1.58521 1.0275,-0.3226 2.147345,-0.72351 2.489692,-0.86176 0.340477,-0.13846 1.602578,-0.59905 2.80031,-1.01842 1.198683,-0.41474 3.229419,-1.12904 4.512499,-1.57602 1.283562,-0.46084 3.804034,-1.34101 5.601384,-1.98616 1.79708,-0.64517 4.667077,-1.67281 6.378605,-2.28571 1.711714,-0.61288 3.81239,-1.36403 4.667973,-1.67278 0.855404,-0.32256 2.816128,-0.99537 4.356671,-1.52995 1.540122,-0.52994 3.080665,-1.08293 3.422995,-1.2258 0.340464,-0.13827 1.637586,-0.61749 2.878215,-1.05068 1.240629,-0.41474 3.27138,-1.14284 4.51159,-1.57602 1.24063,-0.41474 2.53679,-0.90782 2.87816,-1.05529 0.34046,-0.13827 1.81338,-0.6728 3.26771,-1.16588 2.84645,-0.96773 5.16394,-1.80644 8.55686,-3.10595 0.34052,-0.13826 1.04245,-0.36867 1.55594,-0.54839 3.78073,-1.25805 11.25139,-3.97693 12.83279,-4.67002 0.72527,-0.32256 1.40433,-0.57601 1.50925,-0.57601 0.10258,0 0.63064,-0.18436 1.17024,-0.41475 0.53919,-0.23051 1.6436,-0.66822 2.45425,-0.95393 2.43186,-0.87095 2.47385,-1.15667 0.44773,-3.08292 -0.97194,-0.92164 -1.76676,-1.78799 -1.76676,-1.91701 0,-0.13827 -0.34979,-0.64057 -0.77701,-1.12904 -0.42908,-0.4885 -0.77797,-1.00459 -0.77797,-1.14747 0,-0.13845 -0.84,-1.15667 -1.86747,-2.25802 -1.02657,-1.09678 -1.86657,-2.18434 -1.86657,-2.41475 0,-0.23051 -0.21454,-0.41475 -0.47667,-0.41475 -0.26123,0 -0.58353,-0.27643 -0.7136,-0.62671 -0.13055,-0.36867 -0.58021,-0.79721 -1.00046,-0.99998 -0.41976,-0.23053 -0.93566,-0.71428 -1.14412,-1.12901 -0.59604,-1.18895 -8.19768,-8.32806 -9.57939,-8.99625 -0.68418,-0.32259 -2.1991,-1.49769 -3.36512,-2.59444 -1.16693,-1.09676 -2.31106,-2.05992 -2.54239,-2.14283 -0.23319,-0.0922 -1.32455,-0.99542 -2.42861,-2.02765 -1.10304,-1.03225 -2.54936,-2.11978 -3.21399,-2.41934 -0.66372,-0.27644 -1.51768,-0.81106 -1.89641,-1.14745 -0.37776,-0.32258 -0.95611,-0.75575 -1.28358,-0.94009 -0.32645,-0.18436 -1.385204,-0.85252 -2.351127,-1.48384 -0.966404,-0.63134 -1.870299,-1.14747 -2.007892,-1.14747 -0.135308,0 -0.580216,-0.32256 -0.982288,-0.76499 -0.401109,-0.41474 -0.895471,-0.76495 -1.096958,-0.76495 -0.200585,0 -0.777492,-0.36868 -1.280758,-0.8387 -1.061101,-0.97235 -4.059644,-2.52994 -4.862704,-2.52532 -0.303163,0.002 -1.105382,-0.32258 -1.783063,-0.76036 -0.678161,-0.41475 -1.49157,-0.76499 -1.80827,-0.76499 -0.317181,0 -1.264935,-0.32255 -2.106776,-0.76036 -0.84186,-0.41474 -1.701463,-0.76496 -1.910404,-0.76496 -0.209886,-4e-4 -0.877783,-0.27643 -1.487371,-0.6129 -0.609605,-0.3226 -1.313889,-0.60831 -1.565264,-0.60831 -0.251856,0 -0.457085,-0.13845 -0.457085,-0.32256 0,-0.18435 -0.247181,-0.32256 -0.543841,-0.32256 -0.298488,-4.1e-4 -0.945876,-0.23051 -1.436057,-0.46084 -0.490193,-0.23052 -1.085342,-0.46084 -1.32274,-0.46084 -0.23785,0 -0.429103,-0.13826 -0.429103,-0.32256 0,-0.18435 -0.542891,-0.3226 -1.207058,-0.3226 -0.692155,0 -1.371713,-0.18435 -1.594179,-0.4608 -0.214542,-0.23053 -0.641317,-0.46084 -0.952885,-0.46084 -0.312489,0 -0.652971,-0.13826 -0.758829,-0.32258 -0.107283,-0.18435 -0.525653,-0.32258 -0.933753,-0.32258 -0.40579,0 -0.827421,-0.13826 -0.933754,-0.32256 -0.107277,-0.18435 -0.513049,-0.3226 -0.903894,-0.3226 -0.76958,0 -2.550331,-0.77417 -2.842298,-1.23961 -0.09801,-0.13827 -0.583477,-0.27643 -1.076943,-0.27643 -0.493929,0 -0.98272,-0.13827 -1.088601,-0.32258 -0.107278,-0.18436 -0.536363,-0.32258 -0.956135,-0.32258 -0.419754,0 -1.007429,-0.13827 -1.30454,-0.27646 -0.298495,-0.18435 -1.100731,-0.5161 -1.785408,-0.78799 -0.684232,-0.27644 -1.487377,-0.62671 -1.784482,-0.77881 -0.298494,-0.13826 -1.164155,-0.27644 -1.926256,-0.27644 -0.763046,0 -1.472938,-0.13826 -1.578795,-0.32255 -0.107278,-0.18436 -0.726666,-0.3226 -1.380106,-0.3226 -0.677229,0 -1.355384,-0.18437 -1.576449,-0.46081 -0.247199,-0.27646 -0.933759,-0.46083 -1.886163,-0.46083 -0.825075,0 -1.586256,-0.13827 -1.692131,-0.3226 -0.107283,-0.18436 -0.805967,-0.32256 -1.55547,-0.32256 -0.750448,0 -1.450527,-0.13827 -1.556408,-0.32257 -0.107283,-0.18435 -0.65717,-0.3226 -1.224794,-0.3226 -0.568092,0 -1.207062,-0.2305 -1.420202,-0.4608 -0.27053,-0.32259 -0.98552,-0.46083 -2.3535,-0.46083 -1.08114,0 -2.05219,-0.13827 -2.15807,-0.3226 -0.10728,-0.18436 -0.59607,-0.32256 -1.08953,-0.32256 -0.49254,0 -0.98273,-0.13827 -1.0886,-0.32257 -0.10728,-0.18436 -0.64784,-0.3226 -1.20333,-0.3226 -0.55644,0 -1.28356,-0.2305 -1.61611,-0.46082 -0.59513,-0.46082 -22.9509797,-0.68661 -24.0219997,-0.27644 m -20.1331003,2.21659 c -0.0979,0.13826 -0.94867,0.36865 -1.88944,0.49309 -0.94121,0.0922 -1.78727,0.32256 -1.88009,0.47924 -0.0932,0.13826 -0.78403,0.27644 -1.53356,0.27644 -0.75042,0 -1.45052,0.13846 -1.55592,0.32256 -0.10718,0.18436 -1.00745,0.3226 -2.00275,0.3226 -1.19635,0 -1.93653,0.13845 -2.18234,0.46081 -0.20532,0.23051 -0.65249,0.48387 -0.99484,0.53457 -0.63897,0.0922 4.67718,4.82347 8.17917,7.2718 0.84093,0.58527 3.62025,2.67742 6.17714,4.64651 4.8794903,3.75574 5.1900103,3.88938 4.4910603,1.91704 -0.23786,-0.6728 -0.43375,-1.75572 -0.43842,-2.40549 -0.002,-0.64975 -0.13998,-1.68202 -0.30783,-2.2903 -0.65902,-2.41012 -2.26535,-8.81559 -2.5283903,-10.08102 -0.40579,-1.94468 -2.72151,-3.1797 -3.53539,-1.88479 m -15.57263,3.6866 c -0.10709,0.18436 -0.52564,0.3226 -0.93376,0.3226 -0.40576,0 -0.81526,0.13827 -0.90576,0.27644 -0.0933,0.13846 -0.97199,0.32257 -1.95844,0.46081 -0.98599,0.0922 -1.8423,0.32258 -1.90201,0.50231 -0.0607,0.18435 -0.36847,0.32256 -0.68654,0.32256 -0.31717,0 -0.66464,0.13826 -0.77053,0.3226 -0.10728,0.18435 -0.59607,0.32256 -1.08952,0.32256 -0.49253,0 -0.98271,0.13826 -1.08861,0.32256 -0.10708,0.18435 -0.50604,0.3226 -0.8899,0.3226 -0.38243,0 -0.86099,0.18436 -1.06107,0.36865 -0.46642,0.46085 -2.51394,1.1613 -3.39872,1.16589 -0.37314,0.002 -0.76816,0.13846 -0.87359,0.3226 -0.10709,0.18435 -0.44775,0.32256 -0.75884,0.32256 -0.3125,0 -0.74018,0.23052 -0.95287,0.46083 -0.21462,0.2305 -0.79056,0.46084 -1.28356,0.46084 -0.49205,0 -0.89504,0.13827 -0.89504,0.27644 0,0.13826 -0.45708,0.46081 -1.01165,0.65434 -1.8367,0.69586 -6.13773,2.78801 -6.31739,3.07373 -0.0978,0.13826 -0.58021,0.27643 -1.07367,0.27643 -0.49253,0 -0.9832,0.13826 -1.08906,0.32258 -0.10728,0.18436 -0.49954,0.32259 -0.8736,0.32259 -0.37312,0.002 -1.38242,0.6175 -2.23782,1.36404 -0.85586,0.75113 -1.70986,1.36865 -1.89689,1.37325 -0.18656,0.002 -0.60024,0.27643 -0.91648,0.63131 -0.31715,0.3226 -1.0746,0.84796 -1.68235,1.12904 -0.60771,0.27645 -1.53866,0.82028 -2.06852,1.20738 -0.52985,0.36863 -1.1007,0.70504 -1.26815,0.70504 -0.16783,0 -0.63432,0.3226 -1.03636,0.76499 -0.4011,0.41474 -0.89506,0.76496 -1.09465,0.76496 -0.20068,0 -0.61801,0.27643 -0.92723,0.60829 -0.30784,0.32259 -0.69076,0.6129 -0.847,0.6129 -0.15402,0 -0.74298,0.32258 -1.30361,0.76497 -0.56157,0.41475 -1.13477,0.76498 -1.27609,0.76498 -0.14001,0 -1.1385,0.79262 -2.21683,1.75574 -2.80687,2.51611 -4.5125,3.89857 -5.39235,4.38707 -0.41978,0.2305 -1.26163,0.87094 -1.86654,1.4147 -0.60543,0.5438 -1.24999,0.9908 -1.43095,0.99542 -0.18184,0.002 -0.74207,0.41472 -1.24485,0.94468 -0.50277,0.51614 -1.5093,1.20737 -2.23692,1.53454 -1.42347,0.64057 -13.146716,11.87225 -13.146716,12.59713 0,0.2305 -0.35913,0.72812 -0.80084,1.13364 -0.43842,0.41474 -1.09652,1.25346 -1.45706,1.88478 -0.36379,0.63133 -0.77143,1.14747 -0.91182,1.14747 -0.14001,0 -0.2518,0.23049 -0.2518,0.4608 0,0.23052 -0.34982,0.67741 -0.77797,0.94931 -0.42911,0.27643 -0.77796,0.6774 -0.77796,0.89861 0,0.2305 -0.34983,0.66819 -0.77751,0.99997 -1.21919,0.94009 -0.9487,1.35946 1.47895,2.30413 1.23974,0.47925 2.95473,1.18433 3.81104,1.55758 0.85538,0.36867 4.566126,1.81566 8.246256,3.19356 3.67902,1.38246 6.97046,2.62206 7.3121,2.75573 0.34049,0.13826 1.25233,0.48387 2.02282,0.77417 0.7705,0.27644 1.68047,0.64056 2.0228,0.7788 0.3405,0.13827 3.28307,1.2258 6.5347,2.42854 3.25181,1.19817 6.75221,2.5023 7.77877,2.89861 1.0275,0.41475 3.61793,1.35943 5.7575,2.14284 2.13894,0.78339 4.16921,1.53916 4.51157,1.6774 0.34045,0.13827 3.28304,1.23962 6.53475,2.44699 3.25178,1.20736 6.75214,2.5161 7.77961,2.90779 1.02655,0.41475 3.54748,1.32718 5.6013,2.07833 2.05314,0.75115 6.32405,2.32257 9.49034,3.50227 8.91023,3.31335 9.26365,3.42393 10.84251,3.42393 2.15994,0 3.92014,-1.19813 5.63831,-3.84326 0.75466,-1.1613 1.61191,-2.3871 1.90341,-2.72349 0.90903,-1.04605 3.7093503,-6.81468 3.7093503,-7.64324 0,-0.2305 0.13997,-0.46085 0.3125,-0.46085 0.17251,0 0.31249,-0.32256 0.31249,-0.74652 0,-0.41476 0.13998,-0.8295 0.31249,-0.93548 0.17252,-0.0922 0.3125,-0.46085 0.3125,-0.74656 0,-0.32256 0.20997,-0.72347 0.46686,-0.93545 0.25645,-0.23051 0.46689,-0.64055 0.46689,-0.95854 0,-0.32256 0.12112,-0.81565 0.27517,-1.10597 0.14929,-0.27643 0.45242,-0.94468 0.66557,-1.44699 0.21461,-0.50229 0.56667,-1.32717 0.7817,-1.82948 0.21462,-0.50229 0.55222,-1.26729 0.75138,-1.69123 0.5984,-1.28569 -0.10718,-4.61562 -1.39595,-6.59301 -0.59281,-0.90783 -1.07787,-1.72811 -1.07787,-1.81106 0,-0.0922 -0.81668,-1.42395 -1.81573,-2.97233 -1.66321,-2.57601 -2.4430603,-3.91242 -5.1248903,-8.76903 -0.51073,-0.92626 -1.0788,-1.86636 -1.26259,-2.09678 -0.36845,-0.46081 -0.34978,-0.27644 -0.64456,-7.21837 -0.19603,-4.64189 -0.35447,-5.70132 -1.27331,-8.5511 -0.21461,-0.67277 -0.57599,-1.83866 -0.79802,-2.59444 -0.48086,-1.6359 -2.10862,-5.15202 -7.35293,-15.88095 -2.83201,-5.79303 -4.32221,-7.53634 -5.2211,-6.1078 M -121.8646,-145.931 c -0.53543,0.61751 -0.97805,1.41936 -0.98365,1.78802 -0.002,0.36863 -0.14928,0.75116 -0.32182,0.85712 -0.17255,0.0922 -0.31249,0.41476 -0.31249,0.64518 0,0.2305 -0.34982,0.82484 -0.77703,1.27646 -0.4291,0.46085 -0.77798,1.06912 -0.77798,1.36404 0,0.27644 -0.12601,0.77881 -0.28451,1.07371 -0.86099,1.60828 -1.89362,4.00919 -1.89362,4.40551 0,0.2305 -0.27985,0.70508 -0.62313,1.00922 -0.37312,0.32256 -0.62171,0.94008 -0.62171,1.5253 0,0.98157 -0.72433,2.73731 -1.26396,3.0645 -0.15856,0.0922 -0.29386,0.57605 -0.29386,1.0553 0,0.48387 -0.14001,0.96775 -0.31249,1.06912 -0.17256,0.0922 -0.3125,0.70967 -0.3125,1.341 0,0.63595 -0.0978,1.25344 -0.2239,1.37327 -0.41977,0.41473 -1.33394,3.09214 -1.33394,3.91241 0,0.46081 -0.14001,0.90783 -0.3125,1.00919 -0.17255,0.0922 -0.31247,0.58525 -0.31247,1.06912 0,0.48387 -0.14002,0.96774 -0.3125,1.06912 -0.17255,0.0922 -0.31249,0.63592 -0.31249,1.17971 0,0.54377 -0.20532,1.25806 -0.4571,1.58526 -0.26118,0.32255 -0.46174,1.27187 -0.46685,2.19811 -0.002,0.88017 -0.14929,1.6037 -0.32182,1.6037 -0.17256,0 -0.31251,0.72807 -0.31251,1.61748 0,0.8894 -0.13075,1.74651 -0.28917,1.90784 -0.15856,0.18432 -0.3545,1.32257 -0.43377,2.58062 -0.0793,1.26267 -0.36379,3.66357 -0.63012,5.345056 -0.57087,3.60367 -0.73785,21.66485 -0.20531,21.98837 0.1771,0.0921 0.3125,1.6497 0.3125,3.58522 0,1.86632 0.13074,3.82022 0.28918,4.33175 0.15856,0.51613 0.58813,3.06907 0.95284,5.67139 0.36381,2.60362 0.80642,5.146468 0.9846,5.649703 0.17709,0.502298 0.43842,1.396313 0.58253,1.986124 0.14455,0.589883 0.4291,1.617547 0.632,2.29033 0.20531,0.672782 0.43841,2.004578 0.51446,2.963111 0.0793,0.972302 0.33582,1.898612 0.5816,2.101391 0.2425,0.184325 0.43843,0.677396 0.43843,1.0645 0,0.36865 0.14001,0.79259 0.31249,0.898557 0.17256,0.0922 0.3125,0.585269 0.3125,1.069113 0,0.483844 0.14001,0.96776 0.31249,1.069114 0.17255,0.0922 0.31249,0.585269 0.31249,1.069185 0,0.483844 0.13075,0.958461 0.29382,1.055273 0.521,0.322515 1.26352,2.069096 1.28685,3.036784 0.009,0.520752 0.28915,1.359477 0.61891,1.861775 0.32647,0.502298 0.67815,1.124404 0.77843,1.373246 0.0978,0.230533 0.3125,0.69585 0.47014,0.990756 0.15856,0.276451 0.28917,0.741913 0.28917,0.995441 0,0.276379 0.13074,0.705005 0.28918,0.995369 0.15856,0.276452 0.36846,0.7373 0.47014,0.990756 0.0978,0.23046 0.44774,0.870948 0.77703,1.373246 0.3265,0.502298 0.60681,1.156698 0.61939,1.451604 0.009,0.276451 0.16329,0.53452 0.33581,0.53452 0.17255,0 0.3125,0.184398 0.3125,0.414786 0,0.230532 0.2332,0.894015 0.51957,1.451604 0.28452,0.557588 0.65251,1.281119 0.81434,1.603706 0.64039,1.281047 1.87031,3.40082 2.12777,3.67273 0.14928,0.184397 0.27517,0.474689 0.27517,0.69585 0,0.230532 0.43843,0.875561 0.97107,1.451604 1.09375,1.179694 1.82927,2.442359 1.82927,3.138209 0,0.276452 0.49019,1.055273 1.08953,1.774191 0.59887,0.718918 1.0886,1.423923 1.0886,1.576025 0,0.138262 0.43376,0.677396 0.95847,1.170467 0.52704,0.493071 1.23971,1.502353 1.58299,2.2350392 0.34514,0.7373 0.89223,1.622088 1.21963,1.967742 0.3265,0.36865 0.59513,0.797204 0.59513,1.009138 0,0.230532 0.27986,0.465462 0.62314,0.576115 0.34049,0.09213 0.62171,0.322514 0.62171,0.47923 0,0.138478 0.46829,0.801817 1.04056,1.428536 0.57275,0.631333 1.1679,1.373318 1.32227,1.654383 0.15401,0.276452 1.01725,1.276506 1.91649,2.21658497 0.8983,0.935465 1.63336,1.86631703 1.63336,2.05986903 0,0.502298 13.093006,13.3418238 13.847656,13.5805738 0.34048,0.09213 1.5774,1.105949 2.74389,2.216513 1.16741,1.110635 2.35769,2.106004 2.64498,2.216584 0.28918,0.0922 0.93425,0.62672 1.43702,1.147472 0.50278,0.520752 1.06294,0.949306 1.24485,0.953919 0.18183,0 0.87124,0.483844 1.53213,1.069041 0.66045,0.58527 1.32695,1.059959 1.48087,1.059959 0.15401,0 0.71079,0.36865 1.23737,0.838725 0.52703,0.460849 1.65949,1.221216 2.51721,1.686606 0.85772,0.465462 1.76537,1.050659 2.01767,1.299501 0.25182,0.230533 0.65812,0.460849 0.90342,0.460849 0.24253,0 0.44311,0.138262 0.44311,0.276451 0,0.138262 0.46176,0.483844 1.02843,0.751141 0.56527,0.276379 1.28681,0.760367 1.60398,1.105949 0.31714,0.322587 0.83442,0.622178 1.1497,0.622178 0.31714,0 0.57414,0.138262 0.57414,0.322515 0,0.184397 0.19112,0.322586 0.41977,0.322586 0.6455,0 2.21684,0.843339 2.84648,1.525349 0.3125,0.322586 0.82415,0.612878 1.13991,0.612878 0.31715,0 0.57415,0.138262 0.57415,0.322587 0,0.184325 0.27053,0.322586 0.60353,0.322586 0.33117,0 0.68141,0.138262 0.77656,0.276452 0.15855,0.23046 5.90102,3.073689 7.6436,3.755699 0.4291,0.184325 1.17441,0.497684 1.65948,0.732686 0.48461,0.230532 1.07927,0.414785 1.32226,0.414785 0.24251,0 0.44311,0.138262 0.44311,0.322587 0,0.184325 0.21462,0.322586 0.47107,0.322586 0.47432,0 0.73086,0.0922 2.53305,1.022978 0.53964,0.276452 1.26678,0.502371 1.61613,0.502371 0.34979,0 0.72012,0.138261 0.82598,0.322514 0.64646,1.027664 3.88986,-1.115177 3.88986,-2.56678 0,-0.09213 0.29849,-0.511526 0.66135,-0.926239 0.36383,-0.414785 0.81949,-1.018436 1.01167,-1.35025 0.19112,-0.322587 2.16831,-3.262628 4.39074,-6.508174 2.22291,-3.244249 4.22661,-6.243764 4.45235,-6.659919 0.22857,-0.414713 0.51771,-0.824884 0.64877,-0.917011 0.13074,-0.0922 0.86706,-1.124404 1.63662,-2.299556 0.76958,-1.175081 1.59978,-2.350161 1.84511,-2.60823 0.24715,-0.276452 0.58488,-0.686623 0.75652,-0.949306 1.06574,-1.631316 7.79475,-11.2598238 8.20183,-11.7376848 0.27053,-0.322587 1.73319,-2.446973 2.37822,-3.456183 0.17252,-0.276451 0.75232,-1.106022 1.29196,-1.86177503 1.6007,-2.24419397 1.53541,-2.35477497 -4.11886,-7.00679897 -1.36563,-1.124404 -7.73006,-6.5336232 -7.90806,-6.7229942 -0.0839,-0.0922 -0.85585,-0.705077 -1.7117,-1.368705 -0.85585,-0.663555 -2.26721,-1.82948 -3.1366,-2.594389 -2.1716,-1.912453 -4.73506,-4.069134 -8.17077,-6.870988 l -2.90524,-2.368615 0.17709,-1.576025 c 0.52471,-4.692104 0.80641,-6.708649 1.26493,-9.05708 0.27985,-1.428536 0.63709,-3.626667 0.79474,-4.885656 0.15856,-1.25798 0.37313,-2.723424 0.48274,-3.24879 0.26585,-1.313342 0.29385,-1.308729 -5.31006,-0.976987 -2.73829,0.184397 -5.59372,0.322659 -6.34585,0.368722 l -1.36846,0.04613 -2.30919,-3.20734 c -1.27002,-1.764964 -2.39641,-3.405506 -2.50227,-3.654348 -0.10709,-0.23046 -0.46641,-0.751141 -0.7971,-1.129017 -0.33114,-0.36865 -0.76069,-0.963147 -0.95287,-1.304116 -0.19112,-0.322586 -1.51163,-2.290329 -2.93276,-4.32713 -3.02515,-4.340963 -3.02187,-3.884803 -0.0607,-6.906883 7.56635,-7.71332 7.57391,-7.72665 4.33526,-7.72665 -1.20801,0 -2.7826,-0.13826 -3.50038,-0.32259 -0.71781,-0.1844 -2.91508,-0.46085 -4.88364,-0.6221 -6.96285,-0.59911 -6.37024,-0.41479 -7.89882,-2.52995 -0.74392,-1.03228 -1.40667,-2.0138 -1.47244,-2.18429 -0.0653,-0.1844 -0.65717,-1.08295 -1.31527,-2.03687 -1.61656,-2.34555 -0.87638,-3.41474 4.30776,-6.22574 1.47804,-0.80182 4.17622,-2.44698 5.80619,-3.53916 0.96874,-0.6451 1.86753,-1.17969 1.99812,-1.17969 0.13074,0 0.45708,-0.18433 0.72854,-0.41472 0.49018,-0.41478 7.1559,-4.45623 7.38007,-4.45623 0.28917,0 2.78164,-1.917 3.00648,-2.31333 0.31713,-0.552966 -5.79525,-0.580646 -23.78871,-0.0922 -15.88825,0.41472 -14.17752,0.8525 -17.22456,-4.373186 -0.17256,-0.27645 -1.63848,-2.7005 -3.26019,-5.34658 -1.6217,-2.64514 -3.10581,-5.08609 -3.29704,-5.4225 -0.1911,-0.32256 -1.209406,-1.95851 -2.262996,-3.60827 -1.05364,-1.64975 -1.91555,-3.07831 -1.91555,-3.18429 0,-0.0922 -0.19112,-0.41477 -0.41976,-0.66819 -0.23321,-0.27645 -0.75652,-1.1014 -1.16694,-1.85714 -0.41047,-0.75577 -0.81764,-1.44238 -0.90485,-1.52534 -0.25647,-0.23051 -1.86423,-2.72348 -1.86423,-2.87095 0,-0.0922 -1.32974,-2.21196 -2.95565,-4.7474 -1.62589,-2.53455 -2.95654,-4.74514 -2.95654,-4.90918 0,-0.18435 -0.14001,-0.27643 -0.31252,-0.27643 -0.17255,0 -0.31249,-0.13827 -0.31249,-0.32261 0,-0.64975 -4.02417,-6.25938 -5.06074,-7.05385 l -1.06297,-0.81564 -0.9729,1.11977 m 269.82954,0.73734 c -0.54244,0.58986 -1.79805,2.43778 -5.55519,8.1695 -0.38709,0.58985 -1.10069,1.67741 -1.58903,2.41476 -0.48835,0.74193 -1.09889,1.66819 -1.35542,2.05988 -3.01341,4.61654 -4.22052,6.38059 -4.42436,6.46586 -0.13525,0.0463 -0.24252,0.2305 -0.24252,0.36863 0,0.2305 -6.19815,9.98241 -10.03338,15.77589 -0.64134,0.96776 -1.25748,1.96775 -1.36986,2.21659 -0.11203,0.23053 -0.67395,1.11057 -1.24719,1.90784 -0.57275,0.7972 -1.04197,1.52989 -1.04197,1.6267 0,0.0921 -0.34979,0.62211 -0.77791,1.17508 -0.42914,0.54836 -0.77755,1.10134 -0.77755,1.22122 0,0.13826 -0.19589,0.41471 -0.43841,0.6544 -0.24252,0.23046 -0.49857,0.60365 -0.57089,0.8202 -0.16328,0.474686 -3.51625,0.493136 -24.92773,0.0922 l -15.512999,-0.27645 0.405778,0.635936 c 0.223886,0.36872 2.721959,1.96313 5.555142,3.58983 12.929349,7.41149 19.534629,11.46628 19.714209,12.10223 0.15402,0.53913 -0.3638,1.38709 -3.810984,6.25753 -1.759298,2.48388 -0.958042,2.21659 -8.420044,2.83408 -2.138928,0.18432 -4.476576,0.46085 -5.194325,0.62672 -0.71781,0.18439 -2.362796,0.32258 -3.656164,0.32258 -1.511154,0 -2.351155,0.13827 -2.351155,0.32259 0,0.36865 2.847881,3.3686 7.140737,7.53772 2.236934,2.17506 2.574631,2.63129 2.26491,3.06446 -0.200585,0.27645 -0.594234,0.95853 -0.875437,1.502348 -0.27988,0.543748 -0.625459,0.990756 -0.765399,0.990756 -0.139819,0 -0.335831,0.230532 -0.433777,0.557588 -0.09801,0.322587 -0.443043,0.829498 -0.761187,1.170539 -0.321815,0.322515 -0.947754,1.152013 -1.395009,1.811027 -0.447736,0.658941 -1.166026,1.677378 -1.59463,2.267261 -0.429103,0.589811 -1.129188,1.548344 -1.555963,2.138227 -0.424429,0.589811 -1.091376,1.497667 -1.476644,2.018419 -0.387115,0.525294 -0.977113,1.350179 -1.314341,1.834095 -2.116084,3.046011 -2.367952,3.234949 -4.049355,3.050624 -3.805887,-0.414713 -11.539304,-0.718845 -11.816302,-0.460848 -0.191235,0.184397 -0.158555,0.778821 0.07927,1.654383 0.205217,0.755754 0.373121,1.986196 0.373121,2.72811 0,0.741913 0.154012,1.737282 0.345145,2.211971 0.331152,0.824885 0.757908,3.276471 1.075072,6.204116 0.08401,0.755682 0.37779,2.502263 0.65483,3.884737 0.595148,2.953884 0.720137,2.705042 -2.699561,5.374618 -4.782139,3.737247 -8.899401,7.25009 -9.897469,8.445066 -0.566691,0.677396 -1.627305,1.502281 -2.3577,1.824867 -0.730847,0.322587 -2.088571,1.211989 -3.016724,1.972357 -0.927232,0.755753 -3.087151,2.4930362 -4.798883,3.8571272 -7.954966,6.343243 -7.916346,6.301289 -6.931716,7.47543197 0.13983,0.184397 1.26818,1.73274103 2.50463,3.47463703 2.680442,3.778769 3.334814,4.684751 4.546071,6.297179 0.505583,0.672855 1.55455,2.1289998 2.331108,3.2350218 0.777504,1.10595 1.629627,2.188904 1.893612,2.405523 0.261206,0.230461 0.479472,0.562202 0.479472,0.774136 0,0.230533 0.214543,0.557661 0.472487,0.769595 0.261175,0.230532 1.625885,1.963129 3.03443,3.893963 1.408569,1.930906 2.935124,4.004616 3.392666,4.615188 0.457085,0.608265 1.412744,2.000037 2.124483,3.092146 0.711739,1.092181 1.707533,2.534558 2.213579,3.207341 0.505589,0.672854 1.263966,1.700446 1.685609,2.290329 0.419754,0.589811 1.11751,1.548344 1.546138,2.138227 0.429097,0.58988 1.130109,1.552954 1.555939,2.138224 0.424429,0.589883 1.126367,1.548344 1.555939,2.138227 0.429103,0.589883 1.131511,1.585252 1.560139,2.211971 1.050344,1.539117 2.793313,1.248825 8.003659,-1.33641 0.298494,-0.138262 0.798019,-0.276451 1.113311,-0.276451 0.312494,0 0.900639,-0.322587 1.302687,-0.764981 0.405772,-0.414713 1.0872,-0.769523 1.532608,-0.769523 0.438428,0 1.150624,-0.276451 1.578795,-0.603723 0.429103,-0.322587 1.084402,-0.603652 1.459864,-0.603652 0.373115,0 0.763034,-0.138261 0.862382,-0.276451 0.233217,-0.36865 2.013006,-1.239598 2.543346,-1.239598 0.2285,0 1.150625,-0.460845 2.052173,-1.000052 0.902511,-0.552974 2.060114,-1.198076 2.573668,-1.437763 0.513495,-0.23046 1.143586,-0.603652 1.399701,-0.806431 0.256477,-0.23046 1.44723,-0.880175 2.644962,-1.50228 1.198695,-0.622106 2.550325,-1.387087 3.004138,-1.70506 0.452428,-0.322587 0.955213,-0.576042 1.113323,-0.576042 0.15853,0 0.61523,-0.322587 1.017242,-0.764981 0.401113,-0.414714 0.895053,-0.764909 1.095573,-0.764909 0.20059,0 0.618,-0.276452 0.92724,-0.612951 0.3078,-0.322587 0.71781,-0.608265 0.90672,-0.608265 0.1912,0 0.72196,-0.322587 1.18372,-0.764981 0.46175,-0.414713 1.02747,-0.764981 1.25837,-0.764981 0.2285,0 0.89409,-0.47923 1.47479,-1.069113 0.57973,-0.589883 1.21355,-1.069114 1.40668,-1.069114 0.1912,0 0.68093,-0.322586 1.08204,-0.764981 0.40111,-0.414713 0.88247,-0.769594 1.06573,-0.774136 0.18187,-0.0072 1.5252,-1.101408 2.97989,-2.437818 1.45475,-1.336337 2.79519,-2.433132 2.97989,-2.433132 0.18188,0 0.66324,-0.36865 1.06532,-0.769594 0.4011,-0.414713 0.90762,-0.764981 1.12216,-0.764981 0.21455,0 0.47854,-0.27638 0.58437,-0.594425 0.10733,-0.322586 0.46645,-0.677468 0.79945,-0.783435 0.33114,-0.0922 0.60585,-0.36865 0.60585,-0.635946 0,-0.23046 0.24727,-0.529979 0.54477,-0.631333 0.7127,-0.23046 3.18981,-2.5760068 3.18981,-2.9999478 0,-0.460848 2.56753,-2.903207 3.02417,-2.903207 0.19589,0 0.4431,-0.276452 0.54893,-0.594425 0.10733,-0.322659 0.47529,-0.682081 0.81997,-0.792662 0.34515,-0.0922 0.87826,-0.599038 1.18329,-1.092109 0.30785,-0.493143 1.27606,-1.636001 2.15619,-2.543785 0.88152,-0.90324303 1.60306,-1.76035003 1.60492,-1.89861203 0,-0.138261 0.62781,-0.94007797 1.39176,-1.78341697 0.76395,-0.838654 1.39272,-1.622089 1.39687,-1.737283 0.006,-0.0922 0.56903,-0.847952 1.25327,-1.62216 0.68514,-0.778749 1.2458,-1.506894 1.2467,-1.622088 0,-0.138406 0.38715,-0.626719 0.8554,-1.129017 0.99715,-1.073727 2.57782,-4.0322262 2.57133,-4.8142192 0,-0.276451 0.34515,-1.082954 0.7728,-1.751123 0.42908,-0.663627 0.77845,-1.322569 0.77845,-1.460831 0,-0.138261 0.49021,-0.718917 1.0886,-1.285733 0.59982,-0.571429 1.08955,-1.188921 1.08955,-1.373246 0,-0.184325 0.26587,-0.622105 0.59508,-0.96776 0.32651,-0.322514 0.8755,-1.230371 1.21783,-1.96767 0.34046,-0.737372 0.98782,-1.672837 1.43561,-2.08755 0.78074,-0.718918 1.72988,-2.262648 1.72988,-2.815623 0,-0.138262 0.34985,-0.806503 0.77797,-1.474672 0.42909,-0.663627 0.77846,-1.419309 0.77846,-1.672765 0,-0.276451 0.14,-0.465462 0.31249,-0.465462 0.17255,0 0.31249,-0.276451 0.31249,-0.612879 0,-0.322586 0.3685,-1.331796 0.81852,-2.211971 0.45249,-0.880175 0.94077,-1.838708 1.08956,-2.133613 0.14926,-0.276452 0.27049,-0.797276 0.27049,-1.12909 0,-0.322514 0.13988,-0.682009 0.31249,-0.787976 0.17261,-0.0922 0.31255,-0.460848 0.31255,-0.746527 0,-0.322586 0.20985,-0.728145 0.46729,-0.935465 0.25653,-0.230532 0.46693,-0.764981 0.46693,-1.239598 0,-0.470075 0.13981,-0.944764 0.31248,-1.046118 0.17255,-0.0922 0.31249,-0.723531 0.31249,-1.373246 0,-0.649786 0.13982,-1.271892 0.31249,-1.373246 0.17255,-0.0922 0.31249,-0.506911 0.31249,-0.898629 0,-0.368649 0.20991,-0.880175 0.46735,-1.087567 0.25653,-0.230533 0.46687,-0.769595 0.46687,-1.239598 0,-0.474689 0.14,-0.944692 0.31248,-1.050659 0.17255,-0.0922 0.31249,-0.58527 0.31249,-1.069114 0,-0.483916 0.14,-0.963146 0.31249,-1.069113 0.17255,-0.0922 0.31249,-0.714304 0.31249,-1.354864 0,-0.663628 0.20058,-1.327183 0.46735,-1.548344 0.27988,-0.230532 0.46687,-0.898629 0.46687,-1.668224 0,-1.442376 0.53732,-4.580586 0.9445,-5.510573 0.14451,-0.322514 0.33577,-1.230364 0.41976,-1.986124 0.084,-0.75575 0.35448,-2.47465 0.6026,-3.8156 0.24715,-1.34564 0.52799,-4.0922 0.62124,-6.10875 0.0933,-2.0138 0.33114,-4.39164 0.53034,-5.27831 0.78309,-3.50224 -0.46181,-26.146306 -1.54758,-28.136616 -0.1773,-0.32258 -0.32644,-1.42853 -0.32644,-2.45159 0,-1.01843 -0.12129,-1.85255 -0.27519,-1.85255 -0.32651,0 -0.64225,-1.33172 -0.87032,-3.65891 -0.0932,-0.92166 -0.35912,-1.94469 -0.59887,-2.28108 -0.23789,-0.32258 -0.43378,-1.0507 -0.43378,-1.58986 0,-0.53916 -0.14,-1.06912 -0.31249,-1.17048 -0.17255,-0.0922 -0.31249,-0.59448 -0.31249,-1.08755 0,-0.49309 -0.14,-0.89862 -0.31248,-0.89862 -0.17255,0 -0.31719,-0.51613 -0.32182,-1.14746 -0.008,-0.63133 -0.21454,-1.41012 -0.46693,-1.73731 -0.25184,-0.32257 -0.45706,-0.90321 -0.45706,-1.28108 0,-0.36868 -0.14,-0.7742 -0.31249,-0.87559 -0.17254,-0.0922 -0.31248,-0.58524 -0.31248,-1.0691 0,-0.48385 -0.14,-0.96773 -0.31249,-1.06912 -0.17255,-0.0922 -0.31249,-0.46544 -0.31249,-0.80185 0,-0.32257 -0.34979,-1.06449 -0.77845,-1.61287 -0.50183,-0.64516 -0.77798,-1.3963 -0.77798,-2.11982 0,-0.61289 -0.13982,-1.11519 -0.31249,-1.11519 -0.17254,0 -0.31248,-0.23049 -0.31248,-0.46543 0,-0.27644 -0.34979,-1.00919 -0.77846,-1.67741 -0.42908,-0.66356 -0.77562,-1.4516 -0.77286,-1.74653 0.008,-0.65897 -1.50829,-3.66356 -2.26112,-4.48843 -0.29847,-0.3226 -0.54381,-0.89402 -0.54381,-1.26728 0,-0.36863 -0.20991,-0.83869 -0.46687,-1.04608 -0.25654,-0.2305 -0.46735,-0.57141 -0.46735,-0.80184 0,-0.6129 -0.42445,-0.51609 -1.14641,0.27645 m -133.170514,17.8713 c -0.19602,0.13826 -0.96641,1.33637 -1.71173,2.70042 -0.74531,1.35942 -1.88008,3.37785 -2.52233,4.47925 -0.6413097,1.10136 -1.1669497,2.21192 -1.1669497,2.46999 0,0.27644 -0.14463,0.55299 -0.32182,0.6636 -0.48367,0.27644 -1.85445,2.5115 -1.85445,3.00459 0,0.2305 -0.20996,0.59907 -0.46685,0.80646 -0.25645,0.23046 -0.46688,0.62211 -0.46688,0.91701 0,0.27645 -0.20997,0.70508 -0.46175,0.91247 -0.47246,0.36865 -2.33858,3.58976 -2.33858,4.01378 0,0.13826 -0.4011,0.82488 -0.89224,1.54834 -0.49018,0.72353 -1.1441,1.86178 -1.45378,2.53456 -1.48597996,3.225786 -2.98596,5.008266 -4.39405,5.215156 -0.73225,0.0922 -1.49249,0.36865 -1.68978,0.62211 -0.23786,0.27645 -1.0317,0.41478 -2.36469,0.41478 -1.10305,0 -2.31105,0.18433 -2.68465,0.36865 -0.3731403,0.18433 -1.6604203,0.46539 -2.8581503,0.59443 -3.22335,0.36865 -6.71946,1.07372 -7.7796,1.61754 -0.5261,0.27638 -1.70566,0.47923 -2.70471,0.47923 -0.97386,0 -1.85678,0.13827 -1.96263,0.32259 -0.10719,0.18432 -1.13013,0.32259 -2.27469,0.32259 -1.21452,0.007 -2.40573,0.18432 -2.85999,0.46077 -0.42911,0.23054 -1.28264,0.46085 -1.89875,0.46085 -2.80171,0.0223 -3.92531,1.28573 -2.38057,2.66359 0.38713,0.32259 1.09142,1.12441 1.56948,1.73267 0.4776,0.60827 1.07275,1.11064 1.32227,1.11064 0.24716,0 0.45242,0.13826 0.45242,0.32258 0,0.18433 0.66462,1.0276 1.47756,1.86632 2.02983,2.08755 4.2667,4.44233 6.30141,6.6308 0.94213,1.01382 3.09554,3.24886 4.78625,4.97461 6.32153,6.44373 7.49339,8.24877 6.1831,9.51973 -0.29849,0.27645 -1.00742,6.942347 -1.20984,11.325777 -0.11183,2.465355 -0.28451,3.502246 -0.64457,3.88935 -0.34982,0.368649 -0.55645,1.520734 -0.72109,3.972249 -0.12603,1.893998 -0.3871,3.824904 -0.5774,4.299521 -0.19111,0.470075 -0.34981,2.294943 -0.34981,4.046066 v 3.184272 h 0.93795 c 0.51539,0 1.18096,-0.138478 1.47806,-0.276451 1.25042,-0.663555 2.68697,-1.239598 3.07454,-1.239598 0.22856,0 0.59096,-0.276451 0.8050303,-0.612878 0.21461,-0.322587 0.57835,-0.608266 0.81063,-0.608266 0.4011,0 2.06476,-0.640559 3.23593,-1.248824 0.2985,-0.138334 0.69682,-0.276524 0.88803,-0.276524 0.19111,0 0.76492,-0.322514 1.27331,-0.764909 0.50792,-0.414713 1.19541,-0.764981 1.52655,-0.764981 0.33114,0 0.84607,-0.138261 1.14364004,-0.276451 0.2985,-0.138262 1.21638,-0.585269 2.04286996,-0.953919 0.82646,-0.36865 1.57691,-0.861721 1.66694,-1.092181 0.0932,-0.230461 0.50092,-0.414713 0.91322,-0.414713 0.41044,0 0.99159,-0.138262 1.28822,-0.276452 0.29851,-0.184325 1.18282,-0.566815 1.96777,-0.90317 0.7859,-0.322587 1.60724,-0.820271 1.82741,-1.078341 0.21926,-0.276451 0.65249,-0.470075 0.95939,-0.470075 0.3078197,0 0.9551997,-0.184325 1.4402697,-0.460849 3.91503,-1.953901 4.31053,-1.96767 7.95842,-0.23046 0.81247,0.36865 1.69165,0.695778 1.95518,0.695778 0.26118,0 0.55642,0.230533 0.6525,0.460849 0.098,0.230532 0.47667,0.529979 0.84606,0.631332 0.6194,0.184397 2.08019,0.778822 3.39033,1.410154 0.29849,0.138262 0.70753,0.276452 0.91322,0.276452 0.20522,0 0.6623,0.230532 1.01583,0.552974 0.35448,0.322587 1.27238,0.797204 2.04196,1.101337 0.7705,0.322586 1.64361,0.668241 1.94071,0.820271 0.29851,0.138261 0.74206,0.276451 0.98692,0.276451 0.24718,0 0.8638,0.322587 1.37265,0.764981 0.50791,0.414785 1.14082,0.764981 1.40528,0.764981 0.26585,0 0.56809,0.138262 0.67397,0.322587 0.10728,0.184325 0.51723,0.322586 0.91323,0.322586 0.39644,0 0.89644,0.23046 1.10864,0.460849 0.21453,0.23046 0.71595,0.460776 1.11612,0.460776 0.41045,0 0.87451,0.276451 1.06154,0.608337 0.181825,0.322515 0.517253,0.612879 0.741121,0.612879 0.382465,0 1.824118,0.585197 3.067111,1.244211 0.701938,0.36865 2.326902,0.36865 2.561973,-0.0072 0.307837,-0.493071 -0.396447,-7.580101 -0.828348,-8.323889 -0.223892,-0.36865 -0.507905,-2.211971 -0.630572,-4.059834 -0.537301,-8.073677 -0.756994,-10.422108 -1.014902,-10.831775 -0.149283,-0.23046 -0.368482,-1.69576 -0.490193,-3.234949 -0.116554,-1.539189 -0.396458,-3.497711 -0.620332,-4.350201 -0.552222,-2.11062 0.04332,-2.99079 6.238496,-9.20825 0.770506,-0.76959 1.631035,-1.67276 1.914121,-2.00458 0.279856,-0.32258 0.841878,-0.8894 1.24392,-1.23959 1.253251,-1.09218 6.620335,-6.85989 7.107189,-7.63727 0.256518,-0.41471 0.709404,-0.81566 1.010702,-0.90786 0.303163,-0.0921 0.548961,-0.27637 0.548961,-0.41471 0,-0.13826 0.988322,-1.25344 2.193983,-2.47004 2.708904,-2.73726 2.916919,-3.92626 0.76212,-4.3502 -0.685153,-0.13848 -1.804534,-0.41471 -2.489693,-0.57143 -0.684226,-0.18432 -2.154811,-0.36865 -3.266726,-0.47 -1.112379,-0.0922 -2.155738,-0.27645 -2.318516,-0.41478 -0.163283,-0.13827 -1.238312,-0.27646 -2.389881,-0.27646 -1.414603,0 -2.239678,-0.13826 -2.545187,-0.46077 -0.457086,-0.46085 -4.032558,-1.23045 -7.682995,-1.67745 -1.113329,-0.13826 -2.4174,-0.41472 -2.899194,-0.58981 -0.481818,-0.1844 -1.672088,-0.36865 -2.645008,-0.36865 -1.03636,-0.007 -2.01208,-0.1844 -2.35536,-0.46085 -0.32182,-0.23053 -1.20847,-0.52537 -1.96965,-0.64056 -1.0401,-0.13826 -1.4664,-0.36865 -1.71917,-0.92624 -0.18656,-0.41479 -0.45709,-0.72814 -0.5984,-0.72814 -0.14456,0 -0.26586,-0.18433 -0.27054,-0.36865 -0.017,-0.502296 -0.87871,-2.211976 -1.89781,-3.751086 -0.44774,-0.6774 -1.13056,-1.91246 -1.51583,-2.74657 -0.38712,-0.83404 -0.80501,-1.58518 -0.9328,-1.66815 -0.12602,-0.0922 -0.85541,-1.32257 -1.61658,-2.74657 -0.76118,-1.42853 -1.89968,-3.46999 -2.52839,-4.53448 -0.62966,-1.06451 -1.14411,-2.1152 -1.14411,-2.32718 0,-0.23052 -0.21454,-0.56681 -0.4776,-0.7788 -0.26118,-0.2305 -0.96174,-1.37785 -1.55361,-2.58522 -0.59187,-1.20738 -1.49761,-2.76497 -2.01207,-3.46542 -0.51492,-0.69582 -0.93609,-1.44698 -0.93609,-1.66819 0,-0.85713 -1.0065,-1.37324 -1.75603,-0.89861"
           stroke="none"
           fill="#04b3ea"
           fill-rule="evenodd"
           style="display:inline;mix-blend-mode:normal;fill:#00aad4;fill-opacity:1;stroke:#001900;stroke-width:0.831572;stroke-opacity:1;enable-background:new" />
        <path
           d="m -10.785764,-115.62569 -109.093856,-43.16601 -25.36171,96.736076 69.669606,71.0657312 a 44.370054,30.896061 1.5065405 0 0 28.63142,13.2662048 z"
           fill="url(#f)"
           opacity="0.2"
           id="path4030"
           style="fill:url(#linearGradient4209);stroke-width:9.28874" />
        <path
           d="m 39.290946,-116.18745 103.624384,-43.16598 24.09013,96.736036 -66.17669,71.0657322 A 30.894772,42.147303 88.234002 0 1 73.632832,21.714615 Z"
           fill="url(#f)"
           opacity="0.2"
           id="path4030-6"
           style="fill:url(#linearGradient4101);stroke-width:9.05284" />
        <path
           d="m 69.519065,-34.559564 -117.421329,-4.677831 8.8028,99.54887 89.695273,43.987625 a 30.930054,44.32129 72.630488 0 0 31.472053,3.05531 z"
           fill="url(#f)"
           opacity="0.2"
           id="path4030-1"
           style="fill:url(#linearGradient4097);stroke-width:9.28874" />
      </g>
      <text
         xml:space="preserve"
         style="font-size:37.5303px;fill:#00abfa;fill-opacity:1;stroke:#000000;stroke-width:0.390942;stroke-opacity:1"
         x="47.485146"
         y="292.73947"
         id="text1252"
         transform="scale(1.062543,0.94113838)"><tspan
           sodipodi:role="line"
           id="tspan1250"
           style="font-style:normal;font-variant:normal;font-weight:normal;font-stretch:normal;font-family:'Arno Pro';-inkscape-font-specification:'Arno Pro';fill:#00abfa;fill-opacity:1;stroke:#000000;stroke-width:0.390942;stroke-opacity:1"
           x="47.485146"
           y="292.73947">den<tspan
   style="fill:#fa0000;fill-opacity:1;stroke-width:0.390942"
   id="tspan5339">i</tspan>os</tspan></text>
    </g>
  </g>
</svg>
